<svg width="167" height="44" viewBox="0 0 167 44" fill="none" xmlns="http://www.w3.org/2000/svg">
<path d="M58.9239 19.128H56.7399V16.384H58.9239V14.704C58.9239 12.968 59.3252 11.68 60.1279 10.84C60.9305 9.98133 62.0972 9.552 63.6279 9.552C64.2065 9.552 64.7012 9.608 65.1119 9.72C65.5225 9.832 65.9239 10 66.3159 10.224V13.276C65.4945 12.8467 64.7572 12.632 64.1039 12.632C63.5625 12.632 63.1799 12.7907 62.9559 13.108C62.7319 13.4067 62.6199 13.9387 62.6199 14.704V16.384H66.0359V19.128H62.6199V31H58.9239V19.128ZM75.9297 31L75.5657 29.236C74.2404 30.636 72.6444 31.336 70.7777 31.336C69.3031 31.336 68.0991 30.9533 67.1657 30.188C66.2511 29.4227 65.7937 28.4147 65.7937 27.164C65.7937 25.54 66.3911 24.28 67.5857 23.384C68.7991 22.4693 70.5444 22.012 72.8217 22.012C73.6431 22.012 74.4644 22.0493 75.2857 22.124V21.592C75.2857 20.7707 75.0524 20.164 74.5857 19.772C74.1191 19.3613 73.3817 19.156 72.3737 19.156C71.3844 19.156 70.4604 19.324 69.6017 19.66C68.7617 19.9773 67.8471 20.5 66.8577 21.228V17.924C67.7164 17.2707 68.6124 16.7947 69.5457 16.496C70.4791 16.1973 71.5057 16.048 72.6257 16.048C74.6977 16.048 76.2751 16.496 77.3577 17.392C78.4591 18.2693 79.0097 19.5573 79.0097 21.256V27.752L79.6257 31H75.9297ZM69.4897 26.884C69.4897 27.9667 70.1057 28.508 71.3377 28.508C72.0471 28.508 72.7191 28.368 73.3537 28.088C73.9884 27.7893 74.6324 27.3227 75.2857 26.688V24.7H72.5977C71.5151 24.7 70.7217 24.8587 70.2177 25.176C69.7324 25.4933 69.4897 26.0627 69.4897 26.884ZM81.1399 9.888H84.8359V31H81.1399V9.888ZM100.636 24.812H90.4716C90.6209 25.932 91.0316 26.7907 91.7036 27.388C92.3942 27.9853 93.3089 28.284 94.4476 28.284C95.2876 28.284 96.1929 28.1347 97.1636 27.836C98.1529 27.5187 99.0676 27.0893 99.9076 26.548H100.02V29.544C99.2729 30.1227 98.4142 30.5707 97.4436 30.888C96.4916 31.1867 95.4836 31.336 94.4196 31.336C92.8889 31.336 91.5542 31.028 90.4156 30.412C89.2769 29.796 88.3996 28.9093 87.7836 27.752C87.1676 26.5947 86.8596 25.2413 86.8596 23.692C86.8596 22.18 87.1489 20.8453 87.7276 19.688C88.3249 18.5307 89.1556 17.6347 90.2196 17C91.2836 16.3653 92.5156 16.048 93.9156 16.048C95.2782 16.048 96.4636 16.356 97.4716 16.972C98.4982 17.588 99.2822 18.4747 99.8236 19.632C100.365 20.7893 100.636 22.1427 100.636 23.692V24.812ZM93.9156 19.016C93.0382 19.016 92.3009 19.3053 91.7036 19.884C91.1249 20.4627 90.7329 21.2653 90.5276 22.292H96.8276C96.6782 21.228 96.3609 20.416 95.8756 19.856C95.3902 19.296 94.7369 19.016 93.9156 19.016Z" fill="#0D114F"/>
<path d="M103.985 31.336C103.275 31.336 102.678 31.1027 102.193 30.636C101.707 30.1693 101.465 29.5533 101.465 28.788C101.465 28.0227 101.707 27.4067 102.193 26.94C102.678 26.4733 103.275 26.24 103.985 26.24C104.694 26.24 105.291 26.4733 105.777 26.94C106.262 27.4067 106.505 28.0227 106.505 28.788C106.505 29.5533 106.262 30.1693 105.777 30.636C105.291 31.1027 104.694 31.336 103.985 31.336ZM125.118 16.048C126.518 16.048 127.638 16.4867 128.478 17.364C129.337 18.2227 129.766 19.3613 129.766 20.78V31H126.07V22.88C126.07 21.6107 125.902 20.7053 125.566 20.164C125.23 19.604 124.67 19.324 123.886 19.324C122.934 19.324 121.954 19.856 120.946 20.92V31H117.25V22.88C117.25 21.6107 117.082 20.7053 116.746 20.164C116.41 19.604 115.85 19.324 115.066 19.324C114.114 19.324 113.134 19.856 112.126 20.92V31H108.43V19.632L107.814 16.384H111.202L111.734 18.26C112.481 17.476 113.218 16.916 113.946 16.58C114.674 16.2253 115.458 16.048 116.298 16.048C117.231 16.048 118.053 16.2627 118.762 16.692C119.49 17.1027 120.041 17.672 120.414 18.4C121.198 17.56 121.954 16.9627 122.682 16.608C123.429 16.2347 124.241 16.048 125.118 16.048ZM142.014 31L141.65 29.236C140.325 30.636 138.729 31.336 136.862 31.336C135.387 31.336 134.183 30.9533 133.25 30.188C132.335 29.4227 131.878 28.4147 131.878 27.164C131.878 25.54 132.475 24.28 133.67 23.384C134.883 22.4693 136.629 22.012 138.906 22.012C139.727 22.012 140.549 22.0493 141.37 22.124V21.592C141.37 20.7707 141.137 20.164 140.67 19.772C140.203 19.3613 139.466 19.156 138.458 19.156C137.469 19.156 136.545 19.324 135.686 19.66C134.846 19.9773 133.931 20.5 132.942 21.228V17.924C133.801 17.2707 134.697 16.7947 135.63 16.496C136.563 16.1973 137.59 16.048 138.71 16.048C140.782 16.048 142.359 16.496 143.442 17.392C144.543 18.2693 145.094 19.5573 145.094 21.256V27.752L145.71 31H142.014ZM135.574 26.884C135.574 27.9667 136.19 28.508 137.422 28.508C138.131 28.508 138.803 28.368 139.438 28.088C140.073 27.7893 140.717 27.3227 141.37 26.688V24.7H138.682C137.599 24.7 136.806 24.8587 136.302 25.176C135.817 25.4933 135.574 26.0627 135.574 26.884ZM149.072 14.2C148.438 14.2 147.896 13.9853 147.448 13.556C147 13.1267 146.776 12.5667 146.776 11.876C146.776 11.1853 147 10.6253 147.448 10.196C147.896 9.76667 148.438 9.552 149.072 9.552C149.707 9.552 150.248 9.76667 150.696 10.196C151.144 10.6253 151.368 11.1853 151.368 11.876C151.368 12.5667 151.144 13.1267 150.696 13.556C150.248 13.9853 149.707 14.2 149.072 14.2ZM150.92 16.384V31H147.224V16.412L150.92 16.384ZM158.068 31.336C157.097 31.336 156.145 31.2053 155.212 30.944C154.279 30.664 153.401 30.272 152.58 29.768V26.268C153.476 26.94 154.325 27.4347 155.128 27.752C155.931 28.0693 156.799 28.228 157.732 28.228C158.684 28.228 159.384 28.1067 159.832 27.864C160.299 27.6213 160.532 27.248 160.532 26.744C160.532 26.2587 160.308 25.904 159.86 25.68C159.431 25.4373 158.74 25.204 157.788 24.98C156.743 24.7187 155.893 24.4573 155.24 24.196C154.587 23.916 154.017 23.468 153.532 22.852C153.065 22.236 152.832 21.4053 152.832 20.36C152.832 19.0533 153.364 18.008 154.428 17.224C155.511 16.44 156.957 16.048 158.768 16.048C159.645 16.048 160.457 16.1507 161.204 16.356C161.951 16.5427 162.716 16.86 163.5 17.308V20.724C162.697 20.164 161.951 19.7627 161.26 19.52C160.569 19.2773 159.832 19.156 159.048 19.156C158.189 19.156 157.527 19.268 157.06 19.492C156.593 19.6973 156.36 20.0053 156.36 20.416C156.36 20.8267 156.556 21.1347 156.948 21.34C157.359 21.5267 158.003 21.7227 158.88 21.928C159.925 22.152 160.793 22.4133 161.484 22.712C162.193 22.992 162.8 23.4587 163.304 24.112C163.808 24.7467 164.06 25.6333 164.06 26.772C164.06 27.6493 163.808 28.4427 163.304 29.152C162.8 29.8427 162.091 30.384 161.176 30.776C160.261 31.1493 159.225 31.336 158.068 31.336Z" fill="url(#paint0_linear)"/>
<rect width="43.832" height="43.832" rx="7.88976" fill="url(#paint1_linear)"/>
<g filter="url(#filter0_di)">
<path d="M33.258 32.413H29.3487C29.1852 32.413 29.0508 32.2854 29.0363 32.1225C29.0317 32.071 29.0267 32.0211 29.0214 31.9726C28.7973 29.9298 26.5982 28.1752 24.5583 28.4238C23.0692 28.6052 21.8351 29.7293 20.3445 29.8976C19.3393 30.011 18.4621 29.9594 17.4596 29.7629C16.5809 29.5907 15.7327 29.2756 14.952 28.8372C13.1132 27.8044 12.126 26.7409 11.2107 25.1387C10.681 24.2113 10.303 23.1958 10.1655 22.1367C10.0517 21.2602 10.0589 20.4879 10.1544 19.6373C10.3004 18.3379 10.7168 17.0731 11.3964 15.956C12.3504 14.3877 13.3816 13.4125 15.0616 12.4997C15.7731 12.1131 16.5387 11.8304 17.3296 11.6567C19.3324 11.2169 20.629 11.3458 22.5759 11.956C23.6591 12.2955 24.8356 13.0229 25.8362 13.9722C28.0243 16.0481 28.1911 19.3058 28.2464 22.3215C28.2516 22.601 27.996 22.8124 27.7209 22.7627C26.3696 22.5183 25.3981 22.4987 24.0703 22.7098C23.7143 22.7664 23.4214 22.3979 23.5175 22.0505C23.5591 21.8998 23.5918 21.7518 23.6163 21.6058C24.0088 19.2711 22.4111 16.606 20.0547 16.3763C18.718 16.246 17.3943 16.7918 16.4138 17.8864C15.8286 18.4381 15.5049 19.3034 15.4028 20.2261C15.1383 22.6172 17.0941 24.9295 19.497 25.0438C19.9555 25.0656 20.3982 24.999 20.8505 24.8457C22.2759 24.3625 23.6654 23.6404 25.1662 23.7534C29.6812 24.0934 32.8523 26.1288 33.6866 31.9218C33.724 32.1814 33.5203 32.413 33.258 32.413Z" fill="#FAFAFA"/>
</g>
<defs>
<filter id="filter0_di" x="8.44906" y="11.3963" width="26.8744" height="24.2814" filterUnits="userSpaceOnUse" color-interpolation-filters="sRGB">
<feFlood flood-opacity="0" result="BackgroundImageFix"/>
<feColorMatrix in="SourceAlpha" type="matrix" values="0 0 0 0 0 0 0 0 0 0 0 0 0 0 0 0 0 0 127 0" result="hardAlpha"/>
<feOffset dy="1.63237"/>
<feGaussianBlur stdDeviation="0.816183"/>
<feColorMatrix type="matrix" values="0 0 0 0 0 0 0 0 0 0 0 0 0 0 0 0 0 0 0.07 0"/>
<feBlend mode="normal" in2="BackgroundImageFix" result="effect1_dropShadow"/>
<feBlend mode="normal" in="SourceGraphic" in2="effect1_dropShadow" result="shape"/>
<feColorMatrix in="SourceAlpha" type="matrix" values="0 0 0 0 0 0 0 0 0 0 0 0 0 0 0 0 0 0 127 0" result="hardAlpha"/>
<feOffset dy="1.63237"/>
<feGaussianBlur stdDeviation="1.02023"/>
<feComposite in2="hardAlpha" operator="arithmetic" k2="-1" k3="1"/>
<feColorMatrix type="matrix" values="0 0 0 0 0.219608 0 0 0 0 0.533333 0 0 0 0 1 0 0 0 0.13 0"/>
<feBlend mode="normal" in2="shape" result="effect2_innerShadow"/>
</filter>
<linearGradient id="paint0_linear" x1="189.169" y1="-59.0291" x2="177.57" y2="54.1337" gradientUnits="userSpaceOnUse">
<stop stop-color="#5498FF"/>
<stop offset="0.515625" stop-color="#428EFF"/>
<stop offset="1" stop-color="#297FFF"/>
</linearGradient>
<linearGradient id="paint1_linear" x1="52.463" y1="-66.3077" x2="19.6129" y2="48.5381" gradientUnits="userSpaceOnUse">
<stop stop-color="#5498FF"/>
<stop offset="0.515625" stop-color="#428EFF"/>
<stop offset="1" stop-color="#297FFF"/>
</linearGradient>
</defs>
</svg>
