<svg xmlns="http://www.w3.org/2000/svg" width="24" height="24" viewBox="0 0 24 24" x="0px" y="0px"><g data-name="Not Read"><path d="M21.69,11.28a25.37,25.37,0,0,0-4.2-3.36l1.22-1.21a1,1,0,1,0-1.42-1.42L15.65,6.94C11.3,5.09,7.32,6.53,2.31,11.27a1,1,0,0,0,0,1.46,27.12,27.12,0,0,0,4.22,3.33L5.29,17.29a1,1,0,0,0,0,1.42,1,1,0,0,0,1.42,0L8.38,17a9.29,9.29,0,0,0,3.66.81c3.06,0,6.11-1.71,9.65-5.13a1,1,0,0,0,0-1.44ZM4.47,12c3.74-3.36,6.58-4.53,9.65-3.54l-.83.84a3,3,0,0,0-4,4L8,14.63A22.12,22.12,0,0,1,4.47,12ZM9.9,15.52l.81-.82a3,3,0,0,0,4-4l1.36-1.36A20.73,20.73,0,0,1,19.54,12C15.84,15.38,13,16.55,9.9,15.52Z" style="fill: #3485ff;"/></g></svg>